<?xml version="1.0" encoding="UTF-8"?>
<svg id="Layer_2" data-name="Layer 2" xmlns="http://www.w3.org/2000/svg" viewBox="0 0 1209.57 1061.81">
  <defs>
    <style>
      .cls-1 {
        fill: #000;
        font-family: ComicSansMS, "Comic Sans MS";        font-size: 135px;      
      }

      .cls-1, .cls-2, .cls-3 {
        stroke-width: 0px;
      }

      .cls-2 {
        fill: #fff;
      }

      .cls-3 {
        fill: #292627;
      }
    </style>
  </defs>
  <g id="_eie_2" data-name="eie_2">
    <g>
      <path class="cls-2" d="M439.12,0s134.43,346.59,298.53,0c0,0,5.82,265.65,265.65,83.38,0,0-137.67,271.46,172.57,337.39,0,0-292.79,29.09-153.18,318,0,0-246.26-252.07-304.43,87.26,0,0-101.83-292.64-332.8,71.2,0,0,145.71-364.07-181.58-222.32,0,0,168.68-176.87-72.38-250.26,0,0,292.12-22.19,90.48-243.5,0,0,253.34,100.82,217.15-181.15Z"/>
      <g>
        <path class="cls-1" d="M727.96,60.22c1.9,6.68,4.16,13.58,6.87,20.49,9.51,24.27,22.51,43.81,38.65,58.08,20.92,18.5,46.59,27.87,76.29,27.87,22.13,0,46.72-5.34,73.07-15.87,13.56-5.41,27.79-12.29,42.61-20.56-1.75,6.33-3.43,13.07-4.95,20.14-5.54,25.84-7.83,50.96-6.8,74.67,1.32,30.2,8.04,58.18,19.98,83.16,14.81,30.97,37.72,57.5,68.09,78.86,17.63,12.4,37.95,23.14,60.77,32.17-.31.12-.63.24-.94.36-22.95,8.69-43.53,19.6-61.16,32.45-22.56,16.43-40.33,36.06-52.81,58.33-16.22,28.94-23.56,62.38-21.82,99.39.99,21,4.93,43.34,11.79,66.86-19.31-13.27-38.37-23.92-56.7-31.68-24.46-10.35-47.81-15.61-69.42-15.61-17.47,0-33.98,3.43-49.09,10.2-16.49,7.39-31.45,18.84-44.47,34.02-13.51,15.75-25.24,35.93-34.86,59.97-5.2,12.99-9.87,27.33-13.98,42.89-4.07-5.33-8.58-10.86-13.5-16.41-14.97-16.87-30.71-30.4-46.8-40.22-21.14-12.91-42.94-19.45-64.77-19.45-28.21,0-56.02,10.89-82.66,32.36-13.4,10.8-26.74,24.51-39.68,40.77-.5-15.08-40.72,64.43-43.61,51.41,23.88-73.23,23.97-127.94,12.39-151.74-11.2-14.27-25.32-25.33-41.97-32.88-17.87-8.1-38.88-12.21-62.45-12.21-17.7,0-37.29,2.33-58.22,6.91-4.43.97-8.95,2.05-13.55,3.24,18.12-31.88,33.93-75.19,22.51-118.69-9.45-35.98-35.51-65.53-77.74-88.29,1.92-.57,3.86-1.16,5.81-1.78,22.4-7.11,41.7-16.13,57.37-26.79,20.89-14.23,35.48-31.48,43.34-51.28,9.55-24.04,9.01-51.2-1.6-80.73-5.48-15.27-13.81-31.46-24.73-48.14-1.69-2.59-3.46-5.19-5.29-7.83,12.63,2.02,26.51,3.4,40.82,3.4,20.96,0,40.19-2.99,57.16-8.87,20.93-7.26,38.6-18.97,52.52-34.79,15.85-18.01,26.82-41.41,32.62-69.54,1.46-7.09,2.6-14.53,3.42-22.3,1.15,1.76,2.32,3.53,3.51,5.3,16.19,23.98,33.26,43.24,50.75,57.24,23.47,18.79,47.9,28.32,72.58,28.32,29,0,57.47-13.14,84.62-39.05,14-13.37,27.97-30.47,41.5-50.83,4.85-7.29,9.69-15.08,14.52-23.33M737.65,0c-54.71,115.55-106.1,154.04-150.33,154.04C498.87,154.04,439.12,0,439.12,0c21.1,164.41-56.22,198.67-124.37,198.67-48.73,0-92.78-17.53-92.78-17.53,201.64,221.32-90.48,243.5-90.48,243.5,241.06,73.39,72.38,250.26,72.38,250.26,50.43-19.4,90.46-27.48,122.18-27.47,186.72-18.03,18.44,322.8,18.44,322.8,54.09-97.91,186.67-266.16,239.53-250.51,79.87,0,134.23,106.3,134.23,106.3,23.4-136.53,77.24-177.32,133.25-177.31,83.2.01,171.18,90.05,171.18,90.05-139.61-288.92,153.18-318,153.18-318-310.25-65.93-172.57-337.39-172.57-337.39-66.39,46.57-116.16,63.89-153.53,63.89-108.87,0-112.12-147.27-112.12-147.27h0Z"/>
        <g>
          <polygon class="cls-1" points="1067.56 237.28 1138.71 169.98 1173.08 182.51 1067.56 237.28"/>
          <polygon class="cls-1" points="1096.77 253.82 1209.2 213.03 1209.57 244.33 1096.77 253.82"/>
        </g>
        <g>
          <polygon class="cls-1" points="186.41 318.43 67.96 303.61 69.06 273.09 186.41 318.43"/>
          <polygon class="cls-1" points="174.49 288.75 55.3 218.43 88.11 206.26 174.49 288.75"/>
        </g>
        <g>
          <polygon class="cls-1" points="865.4 757.63 947.77 785.39 941.24 822.06 865.4 757.63"/>
          <polygon class="cls-1" points="857.24 780.15 932.15 876.63 888.23 871.59 857.24 780.15"/>
        </g>
      </g>
    </g>
  <text id="text" text-anchor="middle" letter-spacing="12" class="cls-1" transform="translate(420.6 222.57) scale(.95 1)"><tspan x="220" y="100">line1</tspan><tspan x="220" y="230">line2</tspan><tspan x="220" y="360">line3</tspan></text>
  </g>
</svg>