<?xml version="1.0" encoding="UTF-8"?>
<svg id="Layer_2" data-name="Layer 2" xmlns="http://www.w3.org/2000/svg" viewBox="0 0 1387.71 1063.16">
  <defs>
    <style>
      .cls-1 {
        font-family: ComicSansMS, "Comic Sans MS";        font-size: 135px;      
        fill: #000;
      }

      .cls-1, .cls-2, .cls-3 {
        stroke-width: 0px;
      }

      .cls-2 {
        fill: #fff;
      }

      .cls-3 {
        fill: #292627;
      }
    </style>
  </defs>
  <g id="_eie_2" data-name="eie_2">
    <g>
      <path class="cls-2" d="M647.6,642.81c54.01,10.67,111.63,16.44,171.45,16.44,307.95,0,557.6-152.82,557.6-341.34S1127,12.89,819.05,12.89,261.45,129.39,261.45,317.91c0,100.25,70.59,190.4,183,252.84l-32.83,203.61,235.98-131.55Z"/>
      <path class="cls-1" d="M411.62,785.43c-2.23,0-4.45-.67-6.35-2-3.48-2.43-5.25-6.64-4.58-10.83l31.6-196c-55.24-31.68-99.09-69.17-130.4-111.52-34.18-46.23-51.51-95.75-51.51-147.18,0-95.18,43.49-172.15,168.61-234.46C553.24,16.58,668.09,0,819.05,0s277.34,18.96,400.06,83.45c112.85,59.3,168.61,139.29,168.61,234.46s-59.88,184.25-168.61,250.81c-107.03,65.52-249.11,101.61-400.06,101.61-57.87,0-114.9-5.34-169.59-15.87l-232.44,129.58c-1.68.94-3.54,1.4-5.39,1.4ZM819.05,23.96c-301.36,0-539.27,111.84-539.27,293.96,0,46.58,8.61,91.67,39.92,134.02,30.69,41.51,74.47,78.23,130.13,109.15,4.08,2.26,6.3,6.84,5.55,11.44l-29.19,181.05,216.02-120.43c2.29-1.28,4.97-1.7,7.54-1.19,54.5,10.77,111.46,16.23,169.3,16.23,301.36,0,555.61-139.08,555.61-321.19S1120.4,23.96,819.05,23.96Z"/>
    </g>
  
    <text id="text" text-anchor="middle" letter-spacing="12" class="cls-1" transform="translate(420.6 222.57) scale(.95 1)"><tspan x="420" y="0">line1</tspan><tspan x="420" y="130">line2</tspan><tspan x="420" y="260">line3</tspan></text>
  </g>
</svg>