<?xml version="1.0" encoding="UTF-8"?>
<svg id="Layer_2" data-name="Layer 2" xmlns="http://www.w3.org/2000/svg" viewBox="0 0 1146.33 1086.4">
  <defs>
    <style>
      .cls-1 {
        fill: #000;
        font-family: ComicSansMS, "Comic Sans MS";        font-size: 135px;      
      }

      .cls-1, .cls-2, .cls-3 {
        stroke-width: 0px;
      }

      .cls-2 {
        fill: #fff;
      }

      .cls-3 {
        fill: #292627;
      }
    </style>
  </defs>
  <g id="_eie_2" data-name="eie_2">
    <path class="cls-2" d="M808.63,98.3c19.33-13.6,42.14-22.86,67.19-26.16,82.84-10.93,158.86,47.37,169.78,130.21,2.93,22.17.89,43.85-5.24,63.93l1.09.33c53.8,17.01,95.7,63.82,103.57,123.45,10.83,82.12-46.96,157.48-129.08,168.31-28.87,3.81-56.91-.86-81.6-12.1l.12.92c.25,1.54.47,3.09.68,4.65,11.92,90.37-51.67,173.3-142.04,185.22-70.76,9.34-136.96-27.63-168.08-87.5l-.41.67c-18.88,30.45-50.76,52.5-89.05,57.55-67.78,8.94-129.97-38.75-138.91-106.53-1.29-9.79-1.4-19.47-.44-28.88l-3.31.47c-88.76,11.71-170.2-50.75-181.91-139.51-9.07-68.74,26.35-133.09,84.02-164.06l-.09-.18c-18.62-40.93-14.62-90.54,14.65-128.71,42.26-55.11,121.2-65.53,176.31-23.26l1.17.82.8-2.18c20.1-61.12,74.09-105.28,142.14-114.26,75.1-9.91,145.3,29.97,177.34,94.14l1.29,2.65Z"/>
    <g>
      <path class="cls-1" d="M652.83,19.65c28.58,0,56.55,8.03,80.89,23.23,24.04,15.01,43.4,36.27,56.01,61.47l1.24,2.55,10.1,20.75,18.87-13.28c17.46-12.28,37.12-19.94,58.45-22.75,5.77-.76,11.63-1.15,17.41-1.15,31.63,0,62.27,11.5,86.27,32.39,24.21,21.06,39.85,50.21,44.05,82.06,2.49,18.87.96,37.58-4.55,55.62l-5.75,18.81,18.82,5.73.98.3c23.28,7.38,43.99,21.12,59.91,39.74,16.33,19.12,26.71,42.46,30.02,67.52,4.55,34.52-4.61,68.74-25.79,96.36-21.19,27.63-51.86,45.35-86.38,49.9-5.72.75-11.52,1.14-17.24,1.14-18.63,0-36.68-3.92-53.66-11.64l-32.25-14.67,4.64,35.12.12.92.04.27.04.27c.22,1.36.42,2.74.6,4.11,2.57,19.47,1.25,38.85-3.92,57.6-5,18.12-13.36,34.91-24.86,49.9-11.5,14.99-25.54,27.42-41.75,36.95-16.77,9.85-35.14,16.15-54.61,18.72-6.38.84-12.85,1.27-19.23,1.27-26.71,0-52.91-7.41-75.77-21.44-22.58-13.86-40.94-33.54-53.09-56.91l-16.05-30.88-18.15,29.7-.38.62c-16.54,26.64-43.84,44.27-74.89,48.37-4.57.6-9.21.91-13.78.91-25.02,0-49.25-9.1-68.24-25.62-19.15-16.66-31.52-39.71-34.85-64.91-1.07-8.1-1.19-16.28-.37-24.31l2.55-24.98-24.86,3.53-3.21.46c-6.22.82-12.52,1.23-18.74,1.23-34.23,0-67.38-12.45-93.36-35.05-26.19-22.79-43.12-54.33-47.67-88.79-3.86-29.25,1.3-58.48,14.91-84.52,6.57-12.56,14.94-24.05,24.89-34.15,10.04-10.19,21.49-18.78,34.03-25.51l16.34-8.77-7.82-16.82-.05-.11c-16.25-35.8-11.51-77.38,12.39-108.54,10.22-13.32,23.01-23.75,38.01-30.98,14.32-6.91,30.33-10.56,46.28-10.56,23.48,0,45.78,7.58,64.48,21.91l.35.27.37.25,1.17.82,20.86,14.54,8.81-23.85.8-2.18.12-.33.11-.34c8.72-26.51,24.89-49.86,46.77-67.54,22.19-17.93,49.6-29.47,79.28-33.38,6.72-.89,13.54-1.34,20.26-1.34M652.83,0c-7.54,0-15.16.49-22.83,1.51-68.05,8.98-122.04,53.14-142.14,114.26l-.8,2.18-1.17-.82c-22.83-17.51-49.73-25.97-76.43-25.97-37.77,0-75.12,16.95-99.88,49.23-29.27,38.17-33.28,87.78-14.65,128.71l.09.18c-57.67,30.97-93.09,95.32-84.02,164.06,10.76,81.56,80.41,140.92,160.51,140.92,7.06,0,14.21-.46,21.41-1.41l3.31-.47c-.96,9.41-.85,19.09.44,28.88,8.22,62.28,61.4,107.61,122.57,107.61,5.39,0,10.85-.35,16.35-1.08,38.29-5.05,70.17-27.1,89.05-57.55l.41-.67c27.9,53.67,83.99,88.94,146.28,88.94,7.19,0,14.47-.47,21.8-1.44,90.37-11.92,153.97-94.85,142.04-185.22-.21-1.56-.43-3.11-.68-4.65l-.12-.92c19,8.64,39.98,13.4,61.79,13.4,6.54,0,13.15-.43,19.81-1.31,82.12-10.83,139.91-86.19,129.08-168.31-7.87-59.64-49.77-106.45-103.57-123.45l-1.09-.33c6.14-20.08,8.17-41.76,5.24-63.93-10.04-76.13-75.05-131.52-149.8-131.52-6.59,0-13.27.43-19.98,1.32-25.05,3.31-47.86,12.56-67.19,26.16l-1.29-2.65C778.57,38.03,719.05,0,652.83,0h0Z"/>
      <ellipse class="cls-2" cx="376.95" cy="804.57" rx="85.38" ry="62.28"/>
      <ellipse class="cls-2" cx="264.75" cy="957.72" rx="53.89" ry="39.34"/>
      <path class="cls-1" d="M376.95,761.94c18.41,0,36.19,5.78,48.79,15.85,6.33,5.05,16.94,15.79,16.94,30.85s-10.61,25.8-16.94,30.85c-12.6,10.07-30.39,15.85-48.79,15.85s-36.19-5.78-48.8-15.85c-6.33-5.06-16.94-15.78-16.94-30.85s10.61-25.8,16.94-30.85c12.6-10.07,30.39-15.85,48.8-15.85M376.95,742.29c-47.15,0-85.38,27.88-85.38,62.28s38.23,62.28,85.38,62.28,85.38-27.88,85.38-62.28-38.23-62.28-85.38-62.28h0Z"/>
      <path class="cls-1" d="M264.75,938.03c22.45,0,39.23,13.77,39.23,26.09s-16.78,26.09-39.23,26.09-39.22-13.78-39.22-26.09,16.77-26.09,39.22-26.09M264.75,918.38c-29.76,0-53.89,17.61-53.89,39.34s24.13,39.34,53.89,39.34,53.89-17.61,53.89-39.34-24.13-39.34-53.89-39.34h0Z"/>
    </g>
    <path class="cls-2" d="M1099.73,485.99c21.2-27.74,30.37-62.1,25.81-96.75-3.31-25.16-13.7-48.6-30.04-67.79-15.92-18.7-36.65-32.49-59.95-39.9l-.98-.3-18.83-5.75,5.75-18.89c5.52-18.11,7.05-36.9,4.56-55.84-4.21-31.98-19.86-61.24-44.09-82.39-24.02-20.97-54.69-32.52-86.34-32.52-5.78,0-11.65.39-17.42,1.15-21.35,2.83-41.03,10.51-58.5,22.84l-18.89,13.33-10.11-20.83-1.24-2.56c-12.61-25.3-31.99-46.64-56.05-61.71-24.36-15.26-52.35-23.33-80.95-23.33-6.73,0-13.56.45-20.28,1.34-29.7,3.93-57.13,15.52-79.34,33.52-21.9,17.74-38.08,41.19-46.81,67.81l-.11.34-.12.33-.81,2.19-8.82,23.94-20.87-14.6-1.17-.82-.37-.26-.35-.27c-18.71-14.4-41.03-22-64.53-22-15.97,0-31.99,3.67-46.32,10.6-15.01,7.26-27.81,17.73-38.04,31.11-23.92,31.29-28.67,73.04-12.4,108.98l.05.11,7.82,16.88-16.35,8.81c-12.55,6.76-24.01,15.38-34.06,25.61-9.96,10.14-18.34,21.68-24.91,34.29-13.63,26.15-18.79,55.49-14.93,84.86,4.55,34.6,21.49,66.26,47.71,89.15,25.99,22.69,59.17,35.19,93.43,35.19,6.22,0,12.53-.42,18.76-1.23l3.21-.46,24.88-3.55-2.55,25.08c-.82,8.07-.7,16.28.37,24.41,3.33,25.3,15.71,48.44,34.87,65.17,19,16.59,43.26,25.72,68.3,25.72,4.57,0,9.21-.31,13.79-.91,31.08-4.11,58.4-21.81,74.95-48.56l.38-.62,18.16-29.82,16.07,31.01c12.16,23.47,30.53,43.23,53.13,57.14,22.87,14.08,49.09,21.53,75.83,21.53,6.39,0,12.86-.43,19.24-1.27,19.48-2.58,37.87-8.9,54.66-18.8,16.22-9.56,30.28-22.04,41.78-37.09,11.51-15.05,19.88-31.91,24.88-50.1,5.17-18.83,6.49-38.28,3.92-57.83-.18-1.37-.38-2.76-.6-4.13l-.04-.27-.04-.27-.12-.93-4.64-35.26,32.27,14.73c16.99,7.75,35.06,11.68,53.7,11.68,5.72,0,11.53-.38,17.25-1.14,34.54-4.57,65.24-22.36,86.45-50.1Z"/>
  <text id="text" text-anchor="middle" letter-spacing="12" class="cls-1" transform="translate(420.6 222.57) scale(.95 1)"><tspan x="270" y="50">line1</tspan><tspan x="270" y="180">line2</tspan><tspan x="270" y="310">line3</tspan></text>
  </g>
</svg>