<svg version="1.1" id="Layer_1" xmlns="http://www.w3.org/2000/svg" xmlns:xlink="http://www.w3.org/1999/xlink" x="0px" y="0px"
	 width="100%" viewBox="0 0 254 254" enable-background="new 0 0 254 254" xml:space="preserve">
<path fill="#FFFFFF" opacity="1.000000" stroke="none" 
	d="
M255.000000,160.000000 
	C255.000000,191.635437 255.000000,223.270889 255.000000,254.953156 
	C170.448059,254.953156 85.896095,254.953156 1.000000,254.953156 
	C1.000000,223.646606 1.000000,192.291962 1.340407,160.571838 
	C3.920341,165.193954 7.612710,167.195038 13.217245,167.142883 
	C39.370052,166.899506 65.526657,167.078018 91.679947,166.864822 
	C98.630989,166.808167 103.524422,169.431580 106.879135,175.449722 
	C111.532143,183.796936 116.357796,192.047745 121.083252,200.354797 
	C123.984825,205.455582 126.877708,205.648895 129.978043,200.701172 
	C134.974152,192.728012 139.983643,184.754456 144.668945,176.598083 
	C148.370834,170.153702 152.856201,166.587326 161.035385,166.751175 
	C187.513702,167.281631 214.010971,166.811584 240.494095,167.196930 
	C247.001648,167.291626 251.792664,165.697327 255.000000,160.000000 
z"/>
<path fill="#010101" opacity="1.000000" stroke="none" 
	d="
M255.000000,159.531342 
	C251.792664,165.697327 247.001648,167.291626 240.494095,167.196930 
	C214.010971,166.811584 187.513702,167.281631 161.035385,166.751175 
	C152.856201,166.587326 148.370834,170.153702 144.668945,176.598083 
	C139.983643,184.754456 134.974152,192.728012 129.978043,200.701172 
	C126.877708,205.648895 123.984825,205.455582 121.083252,200.354797 
	C116.357796,192.047745 111.532143,183.796936 106.879135,175.449722 
	C103.524422,169.431580 98.630989,166.808167 91.679947,166.864822 
	C65.526657,167.078018 39.370052,166.899506 13.217245,167.142883 
	C7.612710,167.195038 3.920341,165.193954 1.340407,160.103180 
	C1.000000,107.040565 1.000000,54.081123 1.000000,1.060843 
	C85.561264,1.060843 170.122589,1.060843 255.000000,1.060843 
	C255.000000,53.687141 255.000000,106.374908 255.000000,159.531342 
M122.994461,191.747574 
	C123.832153,193.114624 124.669853,194.481659 125.547127,195.913300 
	C125.998489,195.410965 126.515015,194.973755 126.862534,194.428757 
	C132.248596,185.981918 137.523483,177.462601 143.014252,169.084671 
	C146.507568,163.754471 150.874435,160.691940 158.044373,160.803162 
	C186.025574,161.237198 214.017349,160.998932 242.005203,160.986649 
	C247.658478,160.984177 248.983398,159.681488 248.985352,154.073608 
	C249.001541,107.427185 248.998825,60.780758 248.988937,14.134332 
	C248.987823,8.833792 247.188080,7.011992 241.937637,7.011371 
	C165.970596,7.002394 90.003563,7.002301 14.036524,7.011644 
	C8.825943,7.012285 7.011957,8.864714 7.010880,14.157496 
	C7.001418,60.637329 7.001531,107.117165 7.009912,153.597000 
	C7.011034,159.819427 8.207620,160.989487 14.516869,160.991379 
	C38.839645,160.998703 63.163395,161.115707 87.484688,160.924805 
	C96.141891,160.856857 104.580566,160.618164 110.281494,169.751083 
	C114.484688,176.847717 118.687874,183.944351 122.994461,191.747574 
z"/>
<path fill="#CCEAFF" opacity="1.000000" stroke="none" 
	d="
M122.891068,191.040985 
	C118.687874,183.944351 114.484688,176.847717 110.145996,169.045746 
	C106.232414,158.266449 106.021576,157.291412 95.282639,157.112183 
	C69.958527,156.689484 44.622547,156.993927 19.291410,156.964386 
	C12.737789,156.956757 11.034376,155.193176 11.033646,148.677689 
	C11.028825,105.681366 11.029525,62.685043 11.032614,19.688721 
	C11.033189,11.688116 12.672829,10.033620 20.610617,10.033308 
	C91.604546,10.030519 162.598480,10.030060 233.592407,10.034031 
	C241.247360,10.034459 242.965714,11.749899 242.966644,19.391691 
	C242.971802,62.054710 242.969391,104.717735 242.968964,147.380753 
	C242.968872,155.614487 241.639999,156.972458 233.505875,156.974289 
	C207.341446,156.980194 181.176620,157.054733 155.012878,156.919556 
	C148.779785,156.887360 144.911484,159.543488 141.889908,164.910934 
	C137.270264,173.117096 132.082520,181.010590 126.923248,188.897690 
	C126.193176,190.013748 124.264801,190.345963 122.891068,191.040985 
M108.992699,156.519547 
	C114.391701,166.389816 119.790695,176.260101 125.710403,187.082321 
	C131.080887,177.264420 135.680862,169.029694 140.107529,160.702820 
	C143.190109,154.904282 147.516052,151.868225 154.412598,151.926773 
	C179.070648,152.136078 203.731873,151.946304 228.391098,152.067856 
	C232.956100,152.090347 235.084427,150.676224 235.071793,145.774857 
	C234.966690,104.953117 234.969818,64.130875 235.090744,23.309223 
	C235.100601,19.979759 233.751083,18.267527 230.899490,17.561428 
	C228.998642,17.090742 226.964050,17.010534 224.989212,17.009745 
	C159.174164,16.983406 93.359093,16.986313 27.544020,16.989666 
	C20.477623,16.990025 19.989599,17.498074 19.989044,24.788523 
	C19.985983,64.944046 19.985722,105.099571 19.989391,145.255096 
	C19.990007,151.992569 20.001070,152.004715 26.564974,152.006271 
	C50.058456,152.011856 73.554619,151.831024 97.042725,152.186371 
	C100.873779,152.244324 104.669228,154.655716 108.992699,156.519547 
z"/>
<path fill="#97D6FF" opacity="1.000000" stroke="none" 
	d="
M122.942764,191.394272 
	C124.264801,190.345963 126.193176,190.013748 126.923248,188.897690 
	C132.082520,181.010590 137.270264,173.117096 141.889908,164.910934 
	C144.911484,159.543488 148.779785,156.887360 155.012878,156.919556 
	C181.176620,157.054733 207.341446,156.980194 233.505875,156.974289 
	C241.639999,156.972458 242.968872,155.614487 242.968964,147.380753 
	C242.969391,104.717735 242.971802,62.054710 242.966644,19.391691 
	C242.965714,11.749899 241.247360,10.034459 233.592407,10.034031 
	C162.598480,10.030060 91.604546,10.030519 20.610617,10.033308 
	C12.672829,10.033620 11.033189,11.688116 11.032614,19.688721 
	C11.029525,62.685043 11.028825,105.681366 11.033646,148.677689 
	C11.034376,155.193176 12.737789,156.956757 19.291410,156.964386 
	C44.622547,156.993927 69.958527,156.689484 95.282639,157.112183 
	C106.021576,157.291412 106.232414,158.266449 110.002747,168.727280 
	C104.580566,160.618164 96.141891,160.856857 87.484688,160.924805 
	C63.163395,161.115707 38.839645,160.998703 14.516869,160.991379 
	C8.207620,160.989487 7.011034,159.819427 7.009912,153.597000 
	C7.001531,107.117165 7.001418,60.637329 7.010880,14.157496 
	C7.011957,8.864714 8.825943,7.012285 14.036524,7.011644 
	C90.003563,7.002301 165.970596,7.002394 241.937637,7.011371 
	C247.188080,7.011992 248.987823,8.833792 248.988937,14.134332 
	C248.998825,60.780758 249.001541,107.427185 248.985352,154.073608 
	C248.983398,159.681488 247.658478,160.984177 242.005203,160.986649 
	C214.017349,160.998932 186.025574,161.237198 158.044373,160.803162 
	C150.874435,160.691940 146.507568,163.754471 143.014252,169.084671 
	C137.523483,177.462601 132.248596,185.981918 126.862534,194.428757 
	C126.515015,194.973755 125.998489,195.410965 125.547127,195.913300 
	C124.669853,194.481659 123.832153,193.114624 122.942764,191.394272 
z"/>
<path fill="#EAF6FF" opacity="1.000000" stroke="none" 
	d="
M108.736923,156.249451 
	C104.669228,154.655716 100.873779,152.244324 97.042725,152.186371 
	C73.554619,151.831024 50.058456,152.011856 26.564974,152.006271 
	C20.001070,152.004715 19.990007,151.992569 19.989391,145.255096 
	C19.985722,105.099571 19.985983,64.944046 19.989044,24.788523 
	C19.989599,17.498074 20.477623,16.990025 27.544020,16.989666 
	C93.359093,16.986313 159.174164,16.983406 224.989212,17.009745 
	C226.964050,17.010534 228.998642,17.090742 230.899490,17.561428 
	C233.751083,18.267527 235.100601,19.979759 235.090744,23.309223 
	C234.969818,64.130875 234.966690,104.953117 235.071793,145.774857 
	C235.084427,150.676224 232.956100,152.090347 228.391098,152.067856 
	C203.731873,151.946304 179.070648,152.136078 154.412598,151.926773 
	C147.516052,151.868225 143.190109,154.904282 140.107529,160.702820 
	C135.680862,169.029694 131.080887,177.264420 125.710403,187.082321 
	C119.790695,176.260101 114.391701,166.389816 108.736923,156.249451 
z"/>
</svg>